<?xml version="1.0" encoding="utf-8"?>
<!-- Svg Vector Icons : http://www.onlinewebfonts.com/icon -->
<!DOCTYPE svg PUBLIC "-//W3C//DTD SVG 1.1//EN" "http://www.w3.org/Graphics/SVG/1.1/DTD/svg11.dtd">
<svg version="1.1" xmlns="http://www.w3.org/2000/svg" xmlns:xlink="http://www.w3.org/1999/xlink" x="0px" y="0px" viewBox="0 0 256 256" enable-background="new 0 0 256 256" xml:space="preserve">
<metadata> Svg Vector Icons : http://www.onlinewebfonts.com/icon </metadata>
<g><g><path fill="#000000" d="M109.1,9.6c22,0,44.5,18.7,51.9,43.1c6.5,21.6-1.4,43.2-21.6,59.1c-17.9,14.1-37.4,15.3-57.4,3.5c-37.5-22.1-36.4-74.4,2.4-98C91.6,13,99.5,10.6,109.1,9.6C109.3,10.3,108.9,9,109.1,9.6L109.1,9.6L109.1,9.6z M86.8,224.5c-20.2-2.3-40.4-4.6-60.5-6.9c-0.2,0-0.5-0.1-0.7-0.1c-17.2-3.7-18-4.9-12.7-21.2c3.5-11,6.9-22,10.8-32.8c6.2-17.3,19.4-26.2,37-27.1c20.5-1.1,41.2-0.4,61.7-0.2c7.1,0.1,8.3,2.5,5.3,9c-0.8,1.6-1.6,3.3-2.6,4.8c-12,19.3-15.9,40-10.4,62.3c2.3,9.2,0.5,10.9-8.9,11.1c-4.7,0.1-9.5,0-14.2,0c-1.6,0-3.2,0-4.7,0C86.9,223.7,86.8,224.1,86.8,224.5L86.8,224.5L86.8,224.5z M124.7,174.2c3.5-0.9,7-1.9,10.5-2.6c5.5-1.2,6.2-3.9,2.9-8.1c-2.1-2.6-4.3-5.2-7-8.4c2.8-3.8,5.7-7.8,8.6-11.7c2.8-3.8,5.6-7.6,8.7-11.9c3.7,2.7,7,5.3,10.5,7.8c5.3,3.9,8.9,2.9,11.6-3.3c1.4-3.3,2.3-6.8,3.5-10.8c6.8,0,13.8-0.3,20.8,0.2c1.6,0.1,3.5,2.9,4.2,4.9c5.3,14.5,5.9,14.7,18.2,5.1c1.6-1.2,3.3-2.4,5.3-3.8c5.8,7.8,11.4,15.4,17.9,24.1c-2.5,2-5,3.6-7.1,5.6c-5.8,5.8-5.1,8.4,2.7,10.4c3.3,0.9,6.5,1.7,10,2.5v23.4c-3.9,1.1-7.6,1.9-11.1,3.2c-6.2,2.3-7,6-2.1,10.4c2.1,2,4.5,3.7,6.6,5.5c-7.9,7.6-15.5,14.9-23.7,22.9c-1.6-1.5-4.2-3.9-6.9-6.1c-4.9-4.2-9.2-2.6-10.4,3.9c-0.3,1.6-0.5,3.2-0.7,4.7c-0.2,1.3-0.4,2.7-0.6,4.5h-23.3c-0.7-3.3-1.3-6.9-2.3-10.3c-1.3-5-4.3-6.8-9.1-4c-4.3,2.5-8.5,5.1-13.5,8c-5.9-7.7-11.9-15.4-18.2-23.5c2.5-2.1,4.8-4,6.9-6c5-4.7,4.3-7.8-2.3-10.2c-3.4-1.2-6.9-2-10.6-3.1C124.7,189.8,124.7,182.2,124.7,174.2L124.7,174.2L124.7,174.2z M215.5,185.5c-0.1-17-13.8-30.6-30.6-30.4c-16.9,0.1-30.3,13.8-30.2,30.9c0.1,17,13.8,30.4,30.7,30.3C202.4,216.2,215.6,202.7,215.5,185.5L215.5,185.5L215.5,185.5z"/></g></g>
</svg>